# xmcd
#
# Track frame offsets:
#	150
#	73511
#	101617
#	147124
#	188723
#	211506
#
# Disc length: 3210 seconds
#
# Revision: 0
# Processed by: cddbd v1.5.2PL0 Copyright (c) Steve Scherf et al.
# Submitted via: audiograbber 1.83.01
#
DISCID=4b0c8806
DTITLE=Grateful Dead - 93-06-26 Robert F Kennedy Stadium, Washington DC
DYEAR=1900
DGENRE=
TTITLE0=Space
TTITLE1=The Last Time
TTITLE2=The Days Between
TTITLE3=Throwing Stones
TTITLE4=One More Saturday Night
TTITLE5=Liberty
EXTD=
EXTT0=
EXTT1=
EXTT2=
EXTT3=
EXTT4=
EXTT5=
PLAYORDER=
